# xmcd
#
# Track frame offsets:
#	150
#	22995
#	43645
#	63652
#	81327
#	98510
#	119087
#	134767
#	158897
#	171225
#
# Disc length: 2445 seconds
#
# Revision: 0
# Processed by: cddbd v1.5.1PL0 Copyright (c) Steve Scherf et al.
# Submitted via: dBpowerAMP V4.0
#
DISCID=89098b0a
DTITLE=Etta James - ETTA JAMES
DYEAR=1900
DGENRE=Blues
TTITLE0=Etta James - Respect Yourself
TTITLE1=Etta James - I'd rather go Blind
TTITLE2=Etta James - Shake Yo' Bootie
TTITLE3=Etta James -  Dust my Broom
TTITLE4=Etta James - Summer Heat
TTITLE5=Etta james - Drown in my own Tears
TTITLE6=Etta James - Rock me Baby
TTITLE7=Etta James - Stormy Weather
TTITLE8=Etta James - Dance with me Henry
TTITLE9=Etta James - Something's got a Hold on Me
EXTD=CD-blue-343, the Blues Collection
EXTT0=
EXTT1=
EXTT2=
EXTT3=
EXTT4=
EXTT5=
EXTT6=
EXTT7=
EXTT8=
EXTT9=
PLAYORDER=
